<svg width="33" height="33" viewBox="0 0 33 33" fill="none" xmlns="http://www.w3.org/2000/svg">
<path d="M27.9534 6.94756C27.2724 6.26624 26.4639 5.72576 25.5739 5.35701C24.684 4.98826 23.7301 4.79846 22.7668 4.79846C21.8035 4.79846 20.8496 4.98826 19.9596 5.35701C19.0697 5.72576 18.2611 6.26624 17.5801 6.94756L16.1668 8.3609L14.7534 6.94756C13.3779 5.57197 11.5122 4.79917 9.56677 4.79917C7.6214 4.79917 5.7557 5.57197 4.38011 6.94756C3.00452 8.32315 2.23172 10.1889 2.23172 12.1342C2.23172 14.0796 3.00452 15.9453 4.38011 17.3209L5.79344 18.7342L16.1668 29.1076L26.5401 18.7342L27.9534 17.3209C28.6348 16.6399 29.1752 15.8313 29.544 14.9414C29.9127 14.0514 30.1025 13.0975 30.1025 12.1342C30.1025 11.1709 29.9127 10.217 29.544 9.32709C29.1752 8.43714 28.6348 7.62857 27.9534 6.94756V6.94756Z" stroke="black" stroke-width="2" stroke-linecap="round" stroke-linejoin="round"/>
</svg>
