<svg width="24" height="23" viewBox="0 0 24 23" fill="none" xmlns="http://www.w3.org/2000/svg">
<rect x="0.5" y="0.686218" width="23" height="21.75" rx="3.5" fill="#FF5A1F" stroke="white"/>
<path d="M7.39465 10.1333C7.01686 9.7382 6.51088 9.51956 5.98568 9.52451C5.46047 9.52945 4.95808 9.75757 4.58669 10.1597C4.2153 10.5619 4.00464 11.1059 4.00008 11.6747C3.99551 12.2434 4.19741 12.7913 4.56229 13.2004L8.56845 17.5386C8.94409 17.9453 9.45349 18.1737 9.98463 18.1737C10.5158 18.1737 11.0252 17.9453 11.4008 17.5386L19.4131 8.86222C19.778 8.45312 19.9799 7.90521 19.9753 7.33647C19.9708 6.76774 19.7601 6.2237 19.3887 5.82153C19.0173 5.41937 18.515 5.19124 17.9897 5.1863C17.4645 5.18136 16.9586 5.39999 16.5808 5.79511L9.98463 12.938L7.39465 10.1333Z" fill="white"/>
</svg>
