<svg width="24" height="24" viewBox="0 0 24 24" fill="none" xmlns="http://www.w3.org/2000/svg">
<rect x="0.5" y="1.08789" width="23" height="21.75" rx="3.5" fill="white" stroke="black"/>
<path d="M7.39465 10.535C7.01686 10.1399 6.51088 9.92124 5.98568 9.92618C5.46047 9.93112 4.95808 10.1592 4.58669 10.5614C4.2153 10.9636 4.00464 11.5076 4.00008 12.0764C3.99551 12.6451 4.19741 13.193 4.56229 13.6021L8.56845 17.9403C8.94409 18.347 9.45349 18.5754 9.98463 18.5754C10.5158 18.5754 11.0252 18.347 11.4008 17.9403L19.4131 9.2639C19.778 8.8548 19.9799 8.30688 19.9753 7.73815C19.9708 7.16941 19.7601 6.62538 19.3887 6.22321C19.0173 5.82104 18.515 5.59291 17.9897 5.58797C17.4645 5.58303 16.9586 5.80166 16.5808 6.19678L12.5746 10.535C11.1788 12.0465 8.7905 12.0465 7.39465 10.535Z" fill="white"/>
</svg>
