<svg width="23" height="22" viewBox="0 0 23 22" fill="none" xmlns="http://www.w3.org/2000/svg">
<g clip-path="url(#clip0_670:481)">
<path d="M13.2272 12.3859C12.9699 12.6445 12.6596 12.8519 12.3149 12.9957C11.9702 13.1395 11.598 13.2169 11.2207 13.2231C10.8434 13.2293 10.4685 13.1643 10.1186 13.032C9.76868 12.8996 9.4508 12.7026 9.18394 12.4527C8.91707 12.2029 8.7067 11.9052 8.56535 11.5775C8.42401 11.2498 8.3546 10.8989 8.36125 10.5455C8.36791 10.1922 8.45051 9.8437 8.60411 9.5209C8.75771 9.19809 8.97917 8.90756 9.25528 8.66664M16.8056 15.7368C15.2043 16.8798 13.2544 17.513 11.2412 17.5438C4.68384 17.5438 0.936768 10.5263 0.936768 10.5263C2.102 8.49287 3.71816 6.7163 5.67682 5.31577L16.8056 15.7368ZM9.27401 3.71928C9.91882 3.57794 10.579 3.50729 11.2412 3.50875C17.7986 3.50875 21.5457 10.5263 21.5457 10.5263C20.977 11.5224 20.2989 12.4603 19.5223 13.3245L9.27401 3.71928Z" stroke="black" stroke-width="2" stroke-linecap="round" stroke-linejoin="round"/>
<path d="M0.936768 0.877197L21.5457 20.1754" stroke="black" stroke-width="2" stroke-linecap="round" stroke-linejoin="round"/>
</g>
<defs>
<clipPath id="clip0_670:481">
<rect width="22.4825" height="21.0526" fill="white"/>
</clipPath>
</defs>
</svg>
