<svg width="72" height="72" viewBox="0 0 72 72" fill="none" xmlns="http://www.w3.org/2000/svg">
<path d="M44.104 18.9109C43.5543 19.4717 43.2464 20.2257 43.2464 21.0109C43.2464 21.7962 43.5543 22.5501 44.104 23.1109L48.904 27.9109C49.4647 28.4606 50.2187 28.7685 51.004 28.7685C51.7892 28.7685 52.5432 28.4606 53.104 27.9109L64.414 16.6009C65.9225 19.9345 66.3792 23.6486 65.7233 27.2484C65.0675 30.8481 63.3301 34.1625 60.7428 36.7498C58.1555 39.3371 54.8411 41.0744 51.2414 41.7303C47.6417 42.3862 43.9275 41.9294 40.594 40.4209L19.864 61.1509C18.6705 62.3444 17.0518 63.0149 15.364 63.0149C13.6761 63.0149 12.0574 62.3444 10.864 61.1509C9.67049 59.9574 9 58.3387 9 56.6509C9 54.9631 9.67049 53.3444 10.864 52.1509L31.594 31.4209C30.0855 28.0874 29.6287 24.3732 30.2846 20.7735C30.9405 17.1738 32.6778 13.8594 35.2651 11.2721C37.8524 8.68479 41.1668 6.94743 44.7665 6.29155C48.3663 5.63567 52.0804 6.09242 55.414 7.60093L44.134 18.8809L44.104 18.9109Z" fill="#FF5A1F" fill-opacity="0.2" stroke="#FF5A1F" stroke-width="2" stroke-linecap="round" stroke-linejoin="round"/>
</svg>
