<svg width="40" height="40" viewBox="0 0 40 40" fill="none" xmlns="http://www.w3.org/2000/svg">
<path d="M40 20C40 8.95428 31.0457 -1.52588e-05 20 -1.52588e-05C8.9543 -1.52588e-05 0 8.95428 0 20C0 29.9826 7.31371 38.2566 16.875 39.757V25.7812H11.7969V20H16.875V15.5937C16.875 10.5812 19.8609 7.81248 24.4293 7.81248C26.6175 7.81248 28.9062 8.20311 28.9062 8.20311V13.125H26.3843C23.8998 13.125 23.125 14.6667 23.125 16.2483V20H28.6719L27.7852 25.7812H23.125V39.757C32.6863 38.2566 40 29.9826 40 20Z" fill="#1877F2"/>
<path d="M27.7851 25.7812L28.6719 20H23.125V16.2483C23.125 14.6667 23.8998 13.125 26.3843 13.125H28.9062V8.20312C28.9062 8.20312 26.6175 7.8125 24.4293 7.8125C19.8609 7.8125 16.875 10.5812 16.875 15.5938V20H11.7969V25.7812H16.875V39.757C17.8932 39.9168 18.9369 40 20 40C21.0631 40 22.1068 39.9168 23.125 39.757V25.7812H27.7851Z" fill="white"/>
</svg>
