<svg width="33" height="32" viewBox="0 0 33 32" fill="none" xmlns="http://www.w3.org/2000/svg">
<g clip-path="url(#clip0)">
<path d="M12.2754 29.3333C13.0118 29.3333 13.6087 28.7363 13.6087 28C13.6087 27.2636 13.0118 26.6666 12.2754 26.6666C11.539 26.6666 10.9421 27.2636 10.9421 28C10.9421 28.7363 11.539 29.3333 12.2754 29.3333Z" stroke="black" stroke-width="2" stroke-linecap="round" stroke-linejoin="round"/>
<path d="M27.2087 29.3333C27.9451 29.3333 28.5421 28.7363 28.5421 28C28.5421 27.2636 27.9451 26.6666 27.2087 26.6666C26.4724 26.6666 25.8754 27.2636 25.8754 28C25.8754 28.7363 26.4724 29.3333 27.2087 29.3333Z" stroke="black" stroke-width="2" stroke-linecap="round" stroke-linejoin="round"/>
<path d="M1.34206 1.06665H6.67539L10.2487 18.92C10.3706 19.5338 10.7046 20.0853 11.1921 20.4777C11.6796 20.8702 12.2897 21.0786 12.9154 21.0666H25.8754C26.5011 21.0786 27.1111 20.8702 27.5987 20.4777C28.0862 20.0853 28.4201 19.5338 28.5421 18.92L30.6754 7.73332H8.00872" stroke="black" stroke-width="2" stroke-linecap="round" stroke-linejoin="round"/>
</g>
<defs>
<clipPath id="clip0">
<rect width="32" height="32" fill="white" transform="translate(0.275391)"/>
</clipPath>
</defs>
</svg>
