<svg width="72" height="72" viewBox="0 0 72 72" fill="none" xmlns="http://www.w3.org/2000/svg">
<path d="M69 36C68.2164 27.7907 64.4011 20.1682 58.2991 14.621C52.1971 9.07373 44.2466 6 36 6C27.7534 6 19.8029 9.07373 13.7009 14.621C7.59891 20.1682 3.78361 27.7907 3 36H69ZM54 57C54 59.3869 53.0518 61.6761 51.364 63.364C49.6761 65.0518 47.3869 66 45 66C42.6131 66 40.3239 65.0518 38.636 63.364C36.9482 61.6761 36 59.3869 36 57V36" fill="#FF5A1F" fill-opacity="0.2"/>
<path d="M54 57C54 59.3869 53.0518 61.6761 51.364 63.364C49.6761 65.0518 47.3869 66 45 66C42.6131 66 40.3239 65.0518 38.636 63.364C36.9482 61.6761 36 59.3869 36 57V36M69 36C68.2164 27.7907 64.4011 20.1682 58.2991 14.621C52.1971 9.07373 44.2466 6 36 6C27.7534 6 19.8029 9.07373 13.7009 14.621C7.59891 20.1682 3.78361 27.7907 3 36H69Z" stroke="#FF5A1F" stroke-width="2" stroke-linecap="round" stroke-linejoin="round"/>
<path d="M53.6001 51.5909C53.6001 49.0909 47.1801 40.4883 37 37V41.5818V46.6727V51.2545V56.3455C37 58.6839 37.5107 61.0856 39.2257 62.6753C40.3851 63.75 41.9773 64.7781 43.9548 65C47.5115 65.3992 49.2547 64.1874 49.813 63.6826C49.9593 63.5503 50.0903 63.4042 50.2264 63.2614C51.3199 62.1152 53.5617 59.298 53 56.3455C52.7317 54.9354 53.6001 54.0909 53.6001 51.5909Z" fill="white"/>
</svg>
