<svg width="50" height="50" viewBox="0 0 50 50" fill="none" xmlns="http://www.w3.org/2000/svg">
<path d="M10.1743 19.2688C10.6113 17.0243 11.707 14.9615 13.3209 13.3445C14.9348 11.7275 16.9936 10.6297 19.2338 10.1918L10.1743 19.2688ZM1 19.2688C1.51705 14.6056 3.6013 10.2571 6.91053 6.93737C10.2198 3.61763 14.5573 1.52391 19.2109 1L1 19.2688ZM37.5136 3.29796H44.3942C45.033 3.29536 45.6653 3.42646 46.2505 3.68284C46.8358 3.93923 47.3612 4.31527 47.793 4.78686C48.2248 5.25845 48.5536 5.8152 48.7582 6.42146C48.9629 7.02772 49.0389 7.67012 48.9814 8.30751C48.2145 15.3787 45.8028 22.1711 41.9401 28.1389C38.4187 33.6911 33.7204 38.3985 28.1787 41.9266C22.1953 45.8102 15.3829 48.2271 8.29354 48.9813C7.65929 49.0388 7.02006 48.9633 6.41654 48.7596C5.81302 48.5559 5.25844 48.2286 4.7881 47.7984C4.31776 47.3683 3.94198 46.8447 3.68467 46.261C3.42736 45.6774 3.29416 45.0465 3.29357 44.4084L3.29357 37.5145C3.28261 36.3993 3.67677 35.3182 4.40258 34.4726C5.12839 33.627 6.13632 33.0747 7.2385 32.9186C9.44047 32.6277 11.6025 32.088 13.6834 31.3101C14.5043 31.0009 15.3965 30.934 16.2542 31.1172C17.1119 31.3005 17.8992 31.7263 18.5228 32.3441L21.4357 35.2625C27.1777 31.9913 31.932 27.2278 35.1971 21.4748L32.2842 18.5564C31.6676 17.9316 31.2426 17.1428 31.0597 16.2834C30.8768 15.4241 30.9435 14.5302 31.2521 13.7077C32.0286 11.6228 32.5672 9.45663 32.8576 7.25044C33.0148 6.13417 33.576 5.11472 34.4344 4.38597C35.2929 3.65721 36.3887 3.27 37.5136 3.29796Z" fill="#FF5A1F" fill-opacity="0.7" stroke="#FF5A1F" stroke-opacity="0.7" stroke-width="2" stroke-linecap="round" stroke-linejoin="round"/>
</svg>
