<svg width="24" height="25" viewBox="0 0 24 25" fill="none" xmlns="http://www.w3.org/2000/svg">
<path d="M20.6245 4.91853C20.1138 4.40753 19.5074 4.00217 18.8399 3.72561C18.1724 3.44905 17.457 3.3067 16.7345 3.3067C16.0121 3.3067 15.2966 3.44905 14.6292 3.72561C13.9617 4.00217 13.3553 4.40753 12.8445 4.91853L11.7845 5.97853L10.7245 4.91853C9.69285 3.88684 8.29358 3.30724 6.83454 3.30724C5.37551 3.30724 3.97624 3.88684 2.94454 4.91853C1.91285 5.95022 1.33325 7.34949 1.33325 8.80853C1.33325 10.2676 1.91285 11.6668 2.94454 12.6985L4.00454 13.7585L11.7845 21.5385L19.5645 13.7585L20.6245 12.6985C21.1355 12.1878 21.5409 11.5813 21.8175 10.9139C22.094 10.2464 22.2364 9.53102 22.2364 8.80853C22.2364 8.08604 22.094 7.37063 21.8175 6.70317C21.5409 6.03571 21.1355 5.42928 20.6245 4.91853V4.91853Z" stroke="#E02424" stroke-width="2" stroke-linecap="round" stroke-linejoin="round"/>
</svg>
