<svg width="22" height="20" viewBox="0 0 22 20" fill="none" xmlns="http://www.w3.org/2000/svg">
<path d="M15.7829 14.849C15.5353 15.074 15.1996 15.2004 14.8495 15.2004C14.4994 15.2004 14.1637 15.074 13.9162 14.849L11.0001 11.819L8.08395 14.848C7.96175 14.9609 7.81616 15.0507 7.65558 15.1122C7.49501 15.1737 7.32262 15.2057 7.14837 15.2064C6.97413 15.207 6.80146 15.1763 6.64034 15.116C6.47922 15.0557 6.33283 14.9669 6.20962 14.8549C6.08641 14.7429 5.98881 14.6098 5.92245 14.4634C5.8561 14.3169 5.8223 14.1599 5.82301 14.0015C5.82372 13.8431 5.85892 13.6864 5.92659 13.5404C5.99425 13.3944 6.09304 13.2621 6.21725 13.151L9.25105 10.001L6.21615 6.84899C6.09194 6.73789 5.99315 6.60554 5.92549 6.45956C5.85782 6.31358 5.82262 6.15687 5.82191 5.99847C5.8212 5.84006 5.855 5.68309 5.92135 5.53662C5.98771 5.39014 6.08531 5.25706 6.20852 5.14505C6.33173 5.03304 6.47812 4.94431 6.63924 4.88399C6.80036 4.82367 6.97303 4.79294 7.14727 4.79359C7.32152 4.79423 7.49391 4.82624 7.65448 4.88775C7.81506 4.94926 7.96065 5.03907 8.08285 5.15199L11.0001 8.18299L13.9162 5.15199C14.0384 5.03907 14.1839 4.94926 14.3445 4.88775C14.5051 4.82624 14.6775 4.79423 14.8517 4.79359C15.026 4.79294 15.1986 4.82367 15.3598 4.88399C15.5209 4.94431 15.6673 5.03304 15.7905 5.14505C15.9137 5.25706 16.0113 5.39014 16.0776 5.53662C16.144 5.68309 16.1778 5.84006 16.1771 5.99847C16.1764 6.15687 16.1412 6.31358 16.0735 6.45956C16.0058 6.60554 15.9071 6.73789 15.7829 6.84899L12.7491 10.001L15.7829 13.151C15.9056 13.2624 16.0029 13.3948 16.0694 13.5405C16.1358 13.6861 16.17 13.8423 16.17 14C16.17 14.1577 16.1358 14.3138 16.0694 14.4595C16.0029 14.6052 15.9056 14.7375 15.7829 14.849V14.849Z" fill="white"/>
</svg>
