<svg width="37" height="37" viewBox="0 0 37 37" fill="none" xmlns="http://www.w3.org/2000/svg">
<path d="M30.2128 19.2113V34.2113H6.21281L6.21281 19.2113" fill="#FF5A1F" fill-opacity="0.2"/>
<path d="M30.2128 19.2113V34.2113H6.21281L6.21281 19.2113" stroke="#FF5A1F" stroke-opacity="0.9" stroke-linecap="round" stroke-linejoin="round"/>
<path d="M33.5167 11.8812L3.51666 11.8812L3.51666 19.3812H33.5167V11.8812Z" fill="#FF5A1F" fill-opacity="0.2" stroke="#FF5A1F" stroke-opacity="0.9" stroke-linecap="round" stroke-linejoin="round"/>
<path d="M18.775 33.953V11.453" stroke="#FF5A1F" stroke-opacity="0.9" stroke-linecap="round" stroke-linejoin="round"/>
<path d="M18.5167 11.587H11.7667C10.7721 11.587 9.81827 11.1919 9.11501 10.4886C8.41175 9.78536 8.01666 8.83154 8.01666 7.83698C8.01666 6.84241 8.41175 5.88859 9.11501 5.18532C9.81827 4.48206 10.7721 4.08698 11.7667 4.08698C17.0167 4.08698 18.5167 11.587 18.5167 11.587Z" stroke="#FF5A1F" stroke-opacity="0.9" stroke-linecap="round" stroke-linejoin="round"/>
<path d="M18.3109 11.7568H25.0609C26.0554 11.7568 27.0093 11.3617 27.7125 10.6585C28.4158 9.95522 28.8109 9.0014 28.8109 8.00684C28.8109 7.01227 28.4158 6.05845 27.7125 5.35519C27.0093 4.65192 26.0554 4.25684 25.0609 4.25684C19.8109 4.25684 18.3109 11.7568 18.3109 11.7568Z" stroke="#FF5A1F" stroke-opacity="0.9" stroke-linecap="round" stroke-linejoin="round"/>
</svg>
